<?xml version="1.0" encoding="UTF-8"?>
<svg id="Camada_1" xmlns="http://www.w3.org/2000/svg" version="1.1" viewBox="0 0 527.63 337.85">
  <!-- Generator: Adobe Illustrator 30.2.1, SVG Export Plug-In . SVG Version: 2.1.1 Build 1)  -->
  <defs>
    <style>
      .st0 {
        fill: #f5f4f4;
      }

      .st1 {
        fill: #058262;
      }
    </style>
  </defs>
  <path class="st0" d="M371.52,183.54c-1.53-7.84-7.18-21.7-13.92-26.86-1.72-3.37-4.65-5.33-7.6-7.6-10.88-8.37-23.61-11.82-37.89-14.29,17.02-4.5,31.31-16,34.91-33.21,2.79-13.34-.11-27.04-8.63-37.14-12.78-15.12-33.41-18.54-52.28-18.46l-69.89.29c4.24,4.26,5.99,8,5.99,13.32l.02,49.84.1,95.84c4.88.96,9.54-.67,14.76.99.67-2.91.45-5.96.45-9.56l-.04-57.07,51.8-.06c7.08,0,13.64.52,20.43,2.22,10.85,1.85,20.64,6.35,28.86,13.93,18.4,17,21.6,45.76,11.98,68.43-6.69,15.77-20.21,26.78-36.96,30.1-6.65,1.32-13.2,1.79-19.81,1.65-3.23-.06-6.49-.27-9.78-.6-5.14-.52-10.19-1.09-15.22-1.72v-.08c-24.45-3.2-28.97-4.58-28.97-4.58-.68-.1-1.35-.2-2-.3-31.98-4.76-32.79-4.86-35.71-5.03-18.87-1.1-30.57-1.61-38.53,6.15-6.37,6.21-7.59,15.07-7.79,20.49,2.5-2.24,6.46-5.34,11.89-7.79,12.99-5.88,25.43-4.01,30.33-3.28,0,0,16.55,2.44,39.8,5.15,6.75.79,18.05,1.77,26.45,2.59v.1c.87.06,1.73.11,2.56.15.19.02.34.02.46.02,8.95.46,17.75.8,26.49.4,6.85-.32,13.65-1.1,20.44-2.65,19.95-4.56,39.56-15.27,49.91-33.41,8.2-14.37,10.55-31.83,7.37-48ZM292.56,132.09l-51.03.54c-2.32.02-4.29-1.68-4.29-4.25l-.02-71.72c0-1.02.73-3.6,1.7-3.59l52.66.22c11.81.05,27.02,6.28,33.98,17.1,8.32,12.93,9.17,31.3-.26,44.76-7.59,10.83-20.06,16.82-32.75,16.95Z"/>
  <path class="st0" d="M187.26,153.41l-.05,52.74c0,4.58,1.18,22.33-3.22,23.77,17.78-3.17,37.2-2.6,54.64-.11,2.28.33,4.22.57,6.63.72,24.25,1.52,70.23,9.59,83.9-14.71,4.23-7.52,5.55-16.52,3.4-25.54-6.8,16.51-10.59,20.64-26.58,25.89-8.81,2.89-17.67,3.47-27.11,3.48l-63.31.06c-4.63,0-8.94.26-13.18-.99l-.02-161.27c0-3.87-1.9-8.61-4.87-9.99-5.14-2.4-10.88-1.44-16.11-.68,3.87,3.94,5.87,7.47,5.87,12.43v94.19Z"/>
  <path class="st1" d="M151.04,291.91c-2.07-7.16,3.55-14.64,9.14-18.59,10.79-7.64,26.08-8.38,39-7.46,9.65.69,18.79,2.06,28.35,3.67,15.84,2.67,31.35,5.16,47.39,6.33,14.97,1.09,29.45.38,43.99-3.16,26.99-6.59,50.86-24.72,58.02-52.41,1.04,16.19-5.96,31.36-17.1,42.59-9.18,9.25-20.75,15.36-33.34,18.84-15.23,4.2-34.91,4.33-50.52,2.37l-31.35-3.94c-22.32-2.81-44.18-5.3-66.38-1.22-6.77,1.25-13.08,3-19.04,6.26-3.11,1.75-5.75,3.64-8.15,6.73Z"/>
</svg>