<?xml version="1.0" encoding="UTF-8"?>
<svg id="Camada_1" data-name="Camada 1" xmlns="http://www.w3.org/2000/svg" viewBox="0 0 527.63 337.85">
  <defs>
    <style>
      .cls-1 {
        fill: #f5f4f4;
      }

      .cls-2 {
        fill: #019361;
      }
    </style>
  </defs>
  <g>
    <path class="cls-2" d="M0,157.69c40.02,0,45.66-16.53,45.66-31.37,0-11.87-2.25-23.74-4.51-35.61s-4.51-23.31-4.51-35.18C36.64,16.53,70.46,0,118.38,0h11.84v23.31h-10.15c-33.26,0-44.53,13.56-44.53,36.46,0,9.75,1.69,19.92,3.95,30.1,2.25,10.6,3.95,20.77,3.95,32.22.56,27.13-15.22,40.69-40.59,45.78v.85c25.37,4.66,41.15,19.07,40.59,46.2,0,11.45-1.69,22.04-3.95,32.22-2.25,10.6-3.95,20.35-3.95,30.52,0,23.74,12.97,36.88,44.53,36.88h10.15v23.31h-11.84c-46.79,0-81.74-15.26-81.74-58.07,0-11.44,2.25-23.31,4.51-34.76,2.25-11.45,4.51-22.89,4.51-34.34,0-13.14-5.64-31.37-45.66-31.37v-21.62Z"/>
    <path class="cls-2" d="M527.63,179.31c-40.02,0-45.66,18.23-45.66,31.37,0,11.44,2.25,22.89,4.51,34.34,2.25,11.44,4.51,23.31,4.51,34.76,0,42.81-35.51,58.07-81.74,58.07h-11.84v-23.31h9.58c31.57-.42,45.1-13.14,45.1-36.88,0-10.17-2.25-19.92-3.95-30.52-2.25-10.17-4.51-20.77-4.51-32.22,0-27.13,15.78-41.54,40.59-46.2v-.85c-24.8-5.09-40.59-18.65-40.59-45.78,0-11.44,2.25-21.62,4.51-32.22,1.69-10.17,3.95-20.35,3.95-30.1,0-22.89-11.84-36.03-44.53-36.46h-10.15V0h11.27c47.91,0,82.3,16.53,82.3,55.53,0,11.87-2.25,23.31-4.51,35.18s-4.51,23.74-4.51,35.61c0,14.84,5.64,31.37,45.66,31.37v21.62Z"/>
  </g>
  <g>
    <path class="cls-1" d="M228.16,227.87c-2.75,9.62-9.54,14.43-20.37,14.43h-47.49c-4.59,0-6.88-1.81-6.88-5.43V72.11h-1.38l-26.15,11.1v153.67c0,.34.03.65.04.98l-.03-.02v25.42h32.94l-.04-.03c.5,0,.98.04,1.49.04h47.49c22.76,0,36.89-8.88,42.4-26.64l-20.65-8.76h-1.38Z"/>
    <path class="cls-1" d="M400.36,204.81l-31.66,13.32c-10.01,17.76-23.5,26.64-40.47,26.64s-30.28-8.88-40.47-26.64c-2.91-5.05-5.1-11.27-6.66-18.55h-27.5c2.18,10.8,5.64,20.22,10.48,28.17,15.42,25.32,36.8,37.99,64.15,37.99s48.73-12.66,64.14-37.99c4.5-7.4,7.62-15.05,9.36-22.94h-1.38Z"/>
    <path class="cls-1" d="M278.4,170.15c0-20.88,3.12-36.88,9.36-47.98,10-17.76,23.49-26.64,40.47-26.64s30.56,8.88,40.47,26.64h1.38l22.3-9.62c-15.32-25.32-36.71-37.99-64.14-37.99s-48.73,12.66-64.15,37.99c-8.81,14.47-13.21,33.67-13.21,57.6,0,2.18.08,4.28.15,6.39h27.5c-.07-2.09-.12-4.19-.12-6.39Z"/>
  </g>
</svg>