<?xml version="1.0" encoding="UTF-8"?>
<svg id="Camada_1" xmlns="http://www.w3.org/2000/svg" version="1.1" viewBox="0 0 20 20">
  <!-- Generator: Adobe Illustrator 30.2.1, SVG Export Plug-In . SVG Version: 2.1.1 Build 1)  -->
  <defs>
    <style>
      .st0 {
        fill: #040105;
      }

      .st1 {
        fill: #520b70;
      }

      .st2 {
        fill: #8d1ca4;
      }

      .st3 {
        fill: #1c0725;
      }

      .st4 {
        fill: #3f075a;
      }

      .st5 {
        fill: #250b34;
      }

      .st6 {
        fill: #ca44d2;
      }

      .st7 {
        fill: #9e24b7;
      }

      .st8 {
        fill: #5c1280;
      }

      .st9 {
        fill: #2f0549;
      }

      .st10 {
        fill: #ae2bbc;
      }

      .st11 {
        fill: #761496;
      }
    </style>
  </defs>
  <path class="st11" d="M4.54,14.28c-.1.23-.59.44-.23.94.78,1.13,2.68,2.21,3.86,1.23.44-.36.82-.75,1.11-1.22-.14-.13-.27-.23-.3-.37.38-.17.66-.5.98-.8.07,0,.15,0,.22,0,.03.03.08.04.12.05-.54.98-1.3,1.81-2.08,2.6-.16.16-.43.28-.63.44-.7.54-1.51.81-2.35.95-.21.03-.42-.01-.63-.03.02-.3-.03-.45-.31-.71l-.49-.44c-.37-.33-.65-.52-.93-.97s-1.21-.74-1.14-1.19c.66.22,1.35.09,2-.19.07-.03.14-.03.18-.09.03-.05,0-.11,0-.16.23-.11.47-.24.65-.42.06.27-.23.39-.01.41Z"/>
  <path class="st8" d="M5.26,8.91c0,.14-.06.27-.08.4-.04-.03-.1,0-.11.04,0,.04,0,.07.02.1l.04.09c.03.07.05.15.03.22-.24-.08-.21.24-.32.41-.71-.23-1.04-.19-1.84-.24l-1.01-.06c-.61-.04-.66-.2-1.01-.46.1-.48.28-.93.46-1.37.22.21.5.28.81.34.16.03.25.1.43.05.12-.04.32,0,.47,0,.72-.05,1.52.15,2.11.48Z"/>
  <path class="st7" d="M18.69,10.41c.79.76,1.21,1.92,1.07,3.01-.13.04-.19.19-.3.28-.19.15-.41.03-.59-.03-.15-.04-.23.15-.3.24-.31.38-.61.73-.79,1.16-.02-.05-.68-1.39-.96-1.2-.11-.14-.29-.22-.41-.34-.64-.66-1.52-1-2.37-1.34v-.09c.2.07.44.07.63.16.26.13.52.3.81.36.17.2.44.32.7.44.05.02.14-.04.19-.03-.01,0,.98,1.09,1.31.74.61-.66.96-1.56.89-2.47-.02-.28-.07-.65-.21-.87.11-.04.23-.04.34,0Z"/>
  <path class="st2" d="M19.76,13.42c-.03.2-.02.4-.09.64-.38,1.29-1.08,2.49-2.13,3.35-.59.49-1.34.68-2.06.7v-.16c.12,0,.24-.1.36-.1.48-.03.92-.25,1.32-.52.98-.14.84-1.6.63-2.25.18-.43.48-.78.79-1.16.07-.09.16-.28.3-.24.18.05.4.18.59.03.11-.09.17-.24.3-.28Z"/>
  <path class="st10" d="M14.66,6.29c-.15.02-.31-.02-.42-.16-.06-.08-.17-.09-.24-.15l-.49-.48c-.07.02-.1.06-.18.11-.07-.25-.25-.28-.47-.33-.81-.18-.3.09-1.06-.05-.29-.05-.4.11-.6.23-.08.05-.28-.06-.39.08-.03.04-.14-.05-.18-.08-.05-.04.02-.17-.11-.25-.57.72-1.05,1.45-1.5,2.22-.05.09-.11.16-.1.25-.15.12-.23.34-.29.51-.03.01-.06.05-.1.06-.04,0-.08-.01-.12,0,.59-1.13,1.24-2.24,2.06-3.2.07.08.23-.03.3-.12.43-.55,1.1-.79,1.79-.6.76.21,1.39.67,1.89,1.27.17.21.23.46.21.7Z"/>
  <path class="st5" d="M4.54,13.02c0,.25.02.5-.03.75-.18,0-.13-.26-.2-.4-.06-.11-.24-.08-.32-.01-.18.14-.35.08-.54.1l-.67.07c-.8.08-.73.47-1.38.23s-.44-.74-.81-.8c-.17-.27-.1-.61-.1-.92.77.06.53.39.9.48.18.04.35.18.51.23.8.23,1.57-.04,2.26-.42.27-.15.31.53.3.65,0,.03.03.08.09.06Z"/>
  <path class="st2" d="M1.74,14.74c-.06.46.87.74,1.14,1.19s.56.64.93.97l.49.44c.28.25.33.41.31.71-.72-.04-1.34-.42-1.8-1l-1.92-2.44c-.19-.24-.27-.49-.37-.73.1-.01.13.07.2.15.27.33.63.59,1.02.72Z"/>
  <path class="st9" d="M4.5,11.62s0,.07,0,.11c0,.1-.06.26.06.3.03.33-.02.66-.02.99-.06.03-.09-.02-.09-.06,0-.12-.03-.8-.3-.65-.69.38-1.46.64-2.26.42-.17-.05-.33-.19-.51-.23-.36-.08-.13-.42-.9-.48,0-.25.02-.5.04-.75.02-.01.03-.06.06-.06.22-.03.26.2.39.32.29.27.75.27,1.14.29l1.11.06c.18,0,.34-.05.55,0,.15.04.41-.04.55-.09.07-.03.06-.23.18-.18Z"/>
  <path class="st3" d="M4.51,13.77s.06.04.1.05l-.05.05c-.18.18-.41.31-.65.42-.54.26-1.14.44-1.77.33-.78-.14-1.33-.73-1.57-1.44-.02-.07,0-.16,0-.23.37.06.19.58.81.8.66.24.58-.16,1.38-.23l.67-.07c.2-.02.36.04.54-.1.08-.06.27-.1.32.01.07.14.03.41.2.4Z"/>
  <path class="st10" d="M19.46,6.62c-.1,0-.2,0-.29,0-.36-.61-1.05-1.01-1.73-.96.24-.18.49-.24.85-.3-.43-.25-.68-.56-.96-.87-.13-.14-.25-.2-.3-.41-.13-.44-.56-.75-.73-1.15l-.16-.38c.28.12.55.25.78.52.77.88,1.51,1.77,2.2,2.72.19.26.31.53.35.82Z"/>
  <path class="st6" d="M5.48,8.81l-.09-.06c.06-.22.08-.53.2-.74.29-.52.43-1.11.63-1.67.12-.35.76-1.73.69-2.07,0-.04-.45-.63.04-1.03-.17-.61-.63-1.06-1.19-1.27h.06c.12,0,.2.04.32.1.71.39,1.11,1.15,1.02,1.96-.04.32-.12.63-.24.95-.49,1.29-.87,2.6-1.43,3.83Z"/>
  <path class="st3" d="M7.26,18.01s-.75.08-.75.08c-.03.03,0,.05,0,.08h-1.14s-.07-.04-.11-.05c-.02,0-.03-.02-.01-.05.84-.13,1.65-.41,2.35-.95.2-.16.47-.27.63-.44-.03.19.07.41,0,.61-.18.49-.94.5-.96.72Z"/>
  <path class="st6" d="M5.82,1.97h-.06c-.13,0-.26-.05-.41-.05-1.16.06-1.87.68-2.27,1.71-.08.21-.19.41-.27.63l-.51,1.45c-.08.24-.28.49-.34.74l-.15.07c.42-1.1.78-2.23,1.27-3.32.44-.97,1.38-1.5,2.41-1.35.13.02.26.02.32.13Z"/>
  <path class="st7" d="M8.53,8.24s-1,2.09-.88,1.89l-.49.85c-.43.75-.9,1.43-1.4,2.09-.08-.02-.12-.09-.12-.16.77-.96,1.37-2.02,1.95-3.13l.81-1.55s.08.02.12,0Z"/>
  <path class="st8" d="M.58,13.18c.23.72.78,1.31,1.57,1.44.63.11,1.22-.07,1.77-.33.02.05.03.12,0,.16-.03.06-.11.06-.18.09-.64.28-1.34.41-2,.19-.39-.13-.75-.39-1.02-.72-.07-.08-.1-.16-.2-.15-.09-.21-.16-.4-.21-.63.09,0,.17-.05.26-.07Z"/>
  <path class="st7" d="M1.78,7.2c-.2.25-.22.58-.33.86-.19.44-.37.89-.46,1.37-.03.16-.11.31-.13.48s-.17.37-.18.56c-.03.02-.07.04-.09.08-.02.05-.06.03-.07-.02,0-.15.04-.35.09-.53.34-1.2.77-2.35,1.21-3.49l.15-.07-.19.75Z"/>
  <path class="st10" d="M13.81,18.01c.29,0,.58-.03.86-.01h.28s0,.12,0,.12l-4.54.03v-.12s3.39-.03,3.39-.03Z"/>
  <path class="st2" d="M19.46,6.62c.35.69.05,1.93-.36,2.59-.03,0-.04.03-.04.06-.01.02-.05.05-.05.07-.02-.04,0-.11-.06-.13.12-.26.23-.53.27-.81.02-.15.06-.31.06-.46.11-.38.11-.94-.12-1.32.1,0,.2-.01.29,0Z"/>
  <path class="st11" d="M.52,11.27c-.03.25-.04.5-.04.75,0,.31-.07.65.1.92,0,.07-.02.16,0,.23-.09.01-.17.07-.26.07-.15-.64-.14-1.31,0-1.95.06,0,.13,0,.19-.02Z"/>
  <path class="st10" d="M18.34,10.02c.05.05.11.09.18.12.07.07.1.2.17.27-.11-.04-.23-.03-.34,0-.35-.57-1.2-1.22-1.79-1.37-.1-.02-.2-.14-.27-.21.03-.02.07-.04.05-.09h.05c.7.35,1.39.73,1.95,1.27Z"/>
  <path class="st2" d="M5.76,13.07c-.15.2-.99,1.12-1.22,1.21-.22-.02.08-.15.01-.41l.05-.05c.31-.31.75-.56,1.04-.91,0,.08.04.15.12.16Z"/>
  <path class="st1" d="M7.26,18.01h.35s1.38,0,1.38,0c.04,0,.09.04.13.03,0,.03,0,.07,0,.1l-1.52.03c-.37,0-.73,0-1.09,0,0-.03-.02-.05,0-.08,0,0,.75-.08.75-.08Z"/>
  <path class="st7" d="M9.5,18.01c.26-.02.54-.05.8,0l.13.03v.12s-1.32,0-1.32,0c0-.03,0-.07,0-.1l.39-.04Z"/>
  <path class="st8" d="M4.87,10.65l-.26,1.09h-.11s-.01-.08,0-.12c.08-.3.13-.6.17-.91.02-.02.04-.05.06-.05.04-.01.09,0,.13,0Z"/>
  <path class="st2" d="M.67,10.48c-.01.25-.16.49-.09.74-.03,0-.04.04-.06.06-.06.02-.13.02-.19.02.06-.25.02-.54.18-.76,0,.05.05.07.07.02.02-.04.06-.06.09-.08Z"/>
  <path class="st8" d="M19,9.35c-.06.3-.28.56-.48.8-.07-.03-.12-.07-.18-.12.19.05.53-.66.6-.8.05.01.04.09.06.13Z"/>
  <path class="st7" d="M5.4,8.75l.09.06c.05-.12-.2.94-.36.75l-.04-.09s.07-.03.08-.06c0-.03,0-.06,0-.09.03-.14.08-.26.08-.4,0-.04.08-.09.04-.15.03.01.06-.02.09-.02Z"/>
  <path class="st2" d="M5.16,9.78c-.03.14-.07.28-.14.41-.04,0-.05.03-.05.06,0,.04,0,.07-.01.11-.04-.02-.05.04-.05.06,0,.08-.02.15-.04.23-.04,0-.09,0-.13,0l.1-.47c.11-.18.08-.49.32-.41Z"/>
  <path class="st7" d="M15.12,17.95h.35s0,.16,0,.16h-.51s0-.1,0-.1c.05-.02.11-.06.17-.06Z"/>
  <path class="st4" d="M4.61,11.74c-.02.08-.06.21-.05.29-.12-.04-.06-.2-.06-.3h.11Z"/>
  <path class="st8" d="M4.91,10.43s.01-.08.05-.06c0,.03,0,.09-.05.06Z"/>
  <path class="st8" d="M19.05,9.28s.02-.05.04-.06c-.01.02-.03.04-.04.06Z"/>
  <path class="st8" d="M4.97,10.25s.01-.06.05-.06c-.01.02-.02.06-.05.06Z"/>
  <path class="st7" d="M14.66,6.29c-.03.37-.54.8-.63,1.04-.26.19-.48.47-.66.76-.04.07,0,.17-.05.24l-.37.59c-.07.11-.12.22-.24.18.19-.66.27-1.37-.17-1.96-.65-.86-1.92-.95-2.75-.28-.47.38-.5.53-.87.81,0-.09.04-.16.1-.25.45-.77.92-1.49,1.5-2.22.13.08.06.21.11.25.03.03.15.11.18.08.11-.13.31-.03.39-.08.2-.12.31-.29.6-.23.76.14.25-.13,1.06.05.22.05.4.08.47.33.08-.05.11-.09.18-.11l.49.48c.07.07.18.07.24.15.11.14.27.17.42.16Z"/>
  <path class="st5" d="M15.6,6.31s.18.02.2.11c.03.14-.06.27-.06.42-.21.1-.32.35-.22.59.4-.27.73-.53,1.18-.62.2-.04.38.15.51.26.29.23.59.08.82-.13.15-.14.35,0,.48.07.19.1.1.32.23.46l.41.44s.11.04.13.05c0,.15-.04.31-.06.46-.18.02-.35-.02-.44-.2-.65-.53-1.52-.6-2.29-.28.24.5-.13.26-.1.82h-.05c-.03-.07-.14-.03-.18-.06-.23-.17-.53-.22-.8-.29-.14-.03-.29-.18-.47-.17v-.08s-.02-.04-.04-.03c.33-.59.62-.9.68-1.67,0-.04-.01-.07-.04-.07.03-.02.09-.06.11-.08Z"/>
  <path class="st3" d="M17.43,5.67c.69-.06,1.37.35,1.73.96.23.38.23.94.12,1.32-.02-.02-.1-.02-.13-.05l-.41-.44c-.14-.14-.05-.36-.23-.46-.12-.07-.33-.2-.48-.07-.23.21-.53.36-.82.13-.13-.11-.31-.3-.51-.26-.45.08-.78.34-1.18.62-.1-.23,0-.48.22-.59,0-.15.09-.28.06-.42-.02-.08-.15-.09-.2-.11.23-.24.57-.31.85-.49.02,0,.04,0,.06,0,.07-.02.15-.05.22-.06.04,0,.09-.04.12-.05l.57-.05Z"/>
  <path class="st5" d="M13.86,8c-.01.05.02.14.09.13.03,0,.06-.04.09-.07.05-.02.12,0,.17,0,0,.03,0,.06,0,.09s.04.04.07.02c.02-.01.02-.06.04-.07.04,0,.09.02.12.02,0,.04.08.17.04.21-.29.28-.56.54-.81.87-.55.74-.98,1.56-1.25,2.42,0,.02-.03.04-.04.06-.11.04-.2-.03-.3-.06.01-.16-.12-.28-.14-.44l.45-1.03,1.26-1.95s-.01-.06,0-.07l.21-.13Z"/>
  <path class="st0" d="M15.49,6.39s.05.03.04.07c-.07.76-.35,1.08-.68,1.67-.13.05-.26,0-.4,0-.04,0-.09-.02-.12-.02-.02-.05-.07-.04-.11-.04-.05,0-.12-.02-.17,0-.05-.03-.12-.07-.18-.06.42-.63.98-1.23,1.63-1.61Z"/>
  <path class="st10" d="M13.65,8.13s-.01.04,0,.07l-1.26,1.95c-.25-.14.23-.52.24-.71,0-.16.05-.23.08-.34.13.04.18-.07.24-.18l.37-.59c.04-.07.01-.17.05-.24.18-.3.39-.57.66-.76-.04.12-.03.23-.16.35-.16.13-.25.31-.34.5.06-.01.07-.05.12-.05Z"/>
  <path class="st10" d="M16.86,5.72s-.08.04-.12.05c0-.06.08-.04.12-.05Z"/>
  <path class="st10" d="M16.51,5.83s-.04,0-.06,0c0-.07.07-.07.06,0Z"/>
  <path class="st8" d="M11.23,12.07c-.2.38-.34.8-.61,1.19-.17.25-.34.51-.45.78-.07.01-.15.02-.22,0,.02-.1.12-.18.13-.29.02-.16-.73-.43-.66-.4-.29-.16-.57-.25-.9-.37l-.68-.24c-.41-.14-.81-.21-1.23-.38-.27.5-.36,1.11-.13,1.63.43.96,1.52,1.27,2.48.85.03.15.16.24.3.37-.29.47-.67.86-1.11,1.22-1.18.98-3.08-.1-3.86-1.23-.35-.51.13-.71.23-.94.22-.09,1.07-1.01,1.22-1.21.5-.67.97-1.35,1.4-2.09l.49-.85c.17-.12.06.57.35.62.39.06.77.04,1.14.2.26.25,1.4.42,1.68.75.12.15.33.22.42.38Z"/>
  <path class="st2" d="M12.71,9.1c-.03.1-.08.18-.08.34,0,.19-.49.57-.24.71l-.45,1.03c-.11.08-.13.22-.19.33-.4.74-.76,1.5-1.22,2.23-.05.08-.09.16-.1.24-.04.04-.1.07-.13.11-.04,0-.08-.02-.12-.05.11-.27.27-.53.45-.78.27-.39.41-.81.61-1.19l1.04-1.97c-.37-.48-.89-.7-1.37-.98-.24-.14-.34-.31-.68-.28-.29.03-.64-.07-.93-.12-.59-.09-.39-.58-.67-.54.06-.17.14-.4.29-.51.37-.28.39-.43.87-.81.83-.67,2.1-.58,2.75.28.44.58.36,1.3.17,1.96Z"/>
  <path class="st1" d="M9.95,14.05c-.32.3-.6.64-.98.8-.96.43-2.05.12-2.48-.85-.24-.53-.15-1.13.13-1.63.42.17.82.23,1.23.38l.68.24c.32.11.6.21.9.37-.06-.03.69.24.66.4-.02.12-.11.2-.13.29Z"/>
  <path class="st5" d="M10.49,13.98c.11.11.28.05.44.18-.38.72-.82,1.35-1.3,1.98-.39.51-.88.91-1.34,1.35s-.7.28-.69.53h-.35c.02-.22.78-.23.96-.72.07-.2-.03-.42,0-.61.78-.8,1.53-1.62,2.08-2.6.03-.05.09-.08.13-.11h.06Z"/>
  <path class="st11" d="M5.31,8.76c.04.06-.04.11-.04.15-.59-.33-1.39-.53-2.11-.48-.15.01-.35-.03-.47,0-.18.06-.27-.01-.43-.05-.31-.06-.59-.12-.81-.34.12-.28.13-.61.33-.86,1.47.12,2.42.63,3.53,1.56Z"/>
  <path class="st1" d="M4.84,10.19l-.1.47s-.05.04-.06.05c-.22.03-.45-.04-.7-.05-.66-.04-2.08.09-2.7-.37-.16-.12-.24-.32-.44-.38.02-.18.1-.32.13-.48.35.25.4.42,1.01.46l1.01.06c.8.05,1.13,0,1.84.24Z"/>
  <path class="st2" d="M5.18,9.32s0,.06,0,.09c0,.03-.03.09-.08.06,0-.02-.02-.06-.02-.1,0-.03.07-.07.11-.04Z"/>
  <path d="M12.08,11.62c.1.03.19.1.3.06.06.2.33.09.44.17.13.09.3.06.42.12.24.13.54.11.79.22.85.35,1.73.69,2.37,1.34-.07.14-.26.09-.35.2-.3.08-.62.1-.92.19-.12.04-.35-.08-.36.1l-.1.02s.01-.06,0-.08c-.02-.03-.06-.03-.11-.03l-3.69.02c-.13,0-.25.02-.38.04h-.06c.01-.08.05-.16.1-.24.46-.73.82-1.49,1.22-2.23.11.05.23.07.34.11Z"/>
  <path class="st2" d="M18.36,10.42c.14.22.19.59.21.87.07.91-.28,1.81-.89,2.47-.33.36-1.33-.74-1.31-.74-.05,0-.14.06-.19.03-.26-.12-.53-.24-.7-.44.05-.09.17-.07.26-.09.86-.25,1.74-1.93.95-3.18-.07-.1-.13-.19-.12-.29.6.15,1.44.81,1.79,1.37Z"/>
  <path class="st11" d="M16.56,9.04c0,.1.06.19.12.29.79,1.26-.09,2.93-.95,3.18-.1.03-.22,0-.26.09-.29-.06-.55-.23-.81-.36,0-.34.12-.7.33-.99.09-.12.19-.22.16-.4.37-.41.59-.91.79-1.41.09-.22.27-.4.29-.62.02.04.03.02.06,0,.07.06.17.18.27.21Z"/>
  <path class="st3" d="M16.82,13.88c.41.49.76,1.03.88,1.69.11.62-.05,1.25-.5,1.65-.22-.05,0-.74-.22-.99-.24-.27-.08-.89-1.75-1.83-.12-.07-.01-.3-.03-.39l.67-.13c.1-.02.14-.07.18-.13.09-.12.28-.06.35-.2.12.12.3.21.41.34Z"/>
  <path class="st8" d="M16.16,8.69l.07.14c-.02.22-.2.4-.29.62-.2.51-.41,1-.79,1.41.02.18-.08.28-.16.4-.21.3-.32.65-.33.99-.19-.1-.43-.09-.63-.16s-.4-.14-.59-.24c.1-.55.97-1.73,1.37-2.2.33-.4.73-.68,1.25-.86-.23-.26-.66-.16-.71-.4.27.06.57.11.8.29Z"/>
  <path class="st11" d="M17.77,15.08c.21.65.35,2.1-.63,2.25.02-.03.02-.09.05-.11.46-.4.62-1.02.5-1.65-.12-.66-.47-1.19-.88-1.69.28-.19.94,1.15.96,1.2Z"/>
  <path class="st2" d="M13.45,11.86c.19.09.39.17.59.24v.09c-.26-.1-.55-.08-.79-.22.02-.03.03-.07.05-.1h.16Z"/>
  <path class="st9" d="M14.57,14.06c.01.1.24.1.22.24-.01.13-.19.18-.18.28.04.23.94.55,1.46,1.5.2.36.39.77.24,1.15-.1.26-.38.39-.48.61-.12,0-.24.1-.36.1h-.35c-.04-.42.46-.43.11-1.26-.22-.52-.65-.86-1.06-1.24-.27-.26-.09-.66.19-.9l-.65-.3c-.1-.05-.25-.03-.25-.16.37.04.75-.13,1.11-.03Z"/>
  <path class="st5" d="M15.13,13.98s.05.02.07.01c.01.09-.09.32.03.39,1.66.94,1.5,1.56,1.75,1.83.22.25,0,.94.22.99-.03.03-.03.08-.05.11-.4.27-.83.49-1.32.52.11-.22.38-.36.48-.61.16-.39-.04-.8-.24-1.15-.52-.95-1.43-1.27-1.46-1.5-.01-.1.17-.15.18-.28.01-.14-.21-.14-.22-.24.03,0,.07-.01.1-.02l.1-.02c.12-.02.24-.05.36-.04Z"/>
  <path class="st11" d="M11.23,12.07c-.08-.16-.29-.24-.42-.38-.28-.33-1.42-.5-1.68-.75-.36-.15-.75-.14-1.14-.2-.29-.04-.18-.74-.35-.62-.12.2.91-1.9.88-1.89.04,0,.06-.04.1-.06.27-.03.08.45.67.54.3.05.64.15.93.12.34-.03.44.14.68.28.47.28.99.5,1.37.98l-1.04,1.97Z"/>
  <path class="st4" d="M4.68,10.71c-.04.31-.1.61-.17.91-.11-.04-.11.15-.18.18-.15.05-.4.14-.55.09-.21-.06-.37,0-.55,0l-1.11-.06c-.39-.02-.84-.02-1.14-.29-.13-.12-.17-.35-.39-.32-.07-.25.08-.49.09-.74,0-.19.16-.39.18-.56.19.05.28.26.44.38.62.45,2.03.33,2.7.37.25.01.47.08.7.05Z"/>
  <path class="st2" d="M5.81,5.98c0,.08.03.15.03.23,0,.52-.15,1.03-.27,1.57-.02.08-.05.2.02.23-.12.21-.14.52-.2.74-.03,0-.06.03-.09.02-1.11-.93-2.06-1.44-3.53-1.56l.19-.75c.06-.25.25-.49.34-.74.04.22,1.08-.36.99-.64.72-.1.44.01,1.12.25.39.14.75.35,1.12.54.1.05.16.16.27.12Z"/>
  <path class="st10" d="M5.76,1.97c.57.21,1.02.66,1.19,1.27-.49.4-.04.99-.04,1.03.07.34-.57,1.71-.69,2.07-.14.03-.26-.04-.38-.13,0-.08-.03-.15-.03-.23-.13-1.36-1.29-2.62-2.73-2.35.41-1.02,1.11-1.64,2.27-1.71.15,0,.28.05.41.05Z"/>
  <path class="st7" d="M6.23,6.34c-.2.56-.34,1.16-.63,1.67-.07-.03-.04-.15-.02-.23.12-.54.27-1.04.27-1.57.11.08.23.16.38.13Z"/>
  <path class="st7" d="M5.81,5.98c-.11.04-.17-.07-.27-.12-.37-.19-.73-.4-1.12-.54-.68-.24-.4-.35-1.12-.25.08.28-.96.85-.99.64l.51-1.45c.08-.23.19-.43.27-.63,1.44-.27,2.6,1,2.73,2.35Z"/>
  <path class="st4" d="M13.46,14.09c0,.12.15.11.25.16l.65.3c-.28.25-.46.65-.19.9.41.38.84.72,1.06,1.24.35.83-.15.84-.11,1.26-.06,0-.12.04-.17.06h-.28c.08-.45-.73-1.95-1-2.38-.13-.21-.31-.33-.49-.5-.31-.29-.68-.53-1.13-.51-.7,1.31-1.47,2.46-2.54,3.39l-.39.04s-.08-.03-.13-.03c0-.05-.04-.2.03-.25.57-.44,1-.99,1.42-1.57l.39-.52.67-1.12c.1-.16.17-.32.13-.49.61-.03,1.22-.04,1.83.03Z"/>
  <path class="st1" d="M14.67,18c-.28-.01-.57.01-.86.01.19-.37-.68-1.45-.95-1.75-.22-.26-.6-.27-.85-.03-.3.29-.62.56-.89.89-.21.25-.35.54-.63.73-.08.05-.2.06-.2.17-.25-.05-.54-.02-.8,0,1.08-.93,1.84-2.08,2.54-3.39.45-.02.82.22,1.13.51.18.17.36.3.49.5.27.43,1.08,1.93,1,2.37Z"/>
  <path class="st8" d="M13.81,18.01l-3.38.03-.13-.03c0-.11.12-.11.2-.17.28-.19.43-.49.63-.73.27-.33.59-.6.89-.89.25-.24.63-.22.85.03.27.31,1.13,1.38.95,1.75Z"/>
  <path class="st9" d="M19.22,8.41c-.04.28-.15.55-.27.81-.07.14-.41.85-.6.8-.57-.54-1.25-.92-1.95-1.27-.02-.56.35-.32.1-.82.77-.32,1.63-.25,2.29.28.09.19.26.23.44.2Z"/>
  <path class="st9" d="M16.34,8.75c.03.05-.01.06-.05.09-.03.02-.04.04-.06,0l-.07-.14s.15-.01.18.06Z"/>
  <path class="st9" d="M10.87,13.94c-.36.13.93.11.76.12.04.18-.04.33-.13.49l-.67,1.12-.39.52c-.43.58-.85,1.12-1.42,1.57-.07.06-.02.2-.03.25h-1.38c0-.25.24-.1.69-.53s.95-.85,1.34-1.35c.48-.63.92-1.25,1.3-1.98-.16-.13-.33-.07-.44-.18.13-.02.25-.04.38-.04Z"/>
  <path class="st1" d="M14.89,8.24c.18-.02.33.13.47.17.05.24.48.14.71.4-.52.18-.91.46-1.25.86-.4.48-1.28,1.65-1.37,2.2h-.16c-.1-.07-.24-.05-.34-.12.25-.87,1.18-2.27,1.86-2.9.14-.13.34-.18.42-.38-.17-.11-.34-.13-.49-.2.07-.06.12-.03.17-.03Z"/>
  <path class="st4" d="M14.85,8.13s.03.02.04.03v.08s-.09-.03-.16.03c.15.07.32.09.49.2-.07.2-.28.25-.42.38-.68.63-1.61,2.03-1.86,2.9h-.12c-.13-.05-.26-.09-.4-.12.27-.86.7-1.68,1.25-2.42.25-.33.52-.59.81-.87.05-.05-.04-.18-.04-.21.13.01.27.06.4,0Z"/>
  <path class="st3" d="M12.08,11.62c-.11-.04-.23-.07-.34-.11.06-.11.09-.25.19-.33.03.16.15.28.14.44Z"/>
  <path class="st1" d="M12.83,11.75v.1c-.11-.08-.39.04-.44-.17.01-.02.04-.04.04-.06.14.02.27.07.4.13Z"/>
  <path class="st4" d="M14.04,8.06s-.06.06-.09.07c-.07.02-.11-.08-.09-.13.06-.01.13.03.18.06Z"/>
  <path class="st4" d="M14.33,8.1s-.02.06-.04.07c-.03.02-.07,0-.07-.02s0-.06,0-.09c.04,0,.09,0,.11.04Z"/>
  <path class="st6" d="M16.12,2.57l.16.38c.17.4.6.7.73,1.15.06.21.17.26.3.41.28.31.54.62.96.87-.36.06-.61.12-.85.3l-.57.05s-.13-.01-.12.05c-.08,0-.15.04-.22.06.01-.07-.05-.07-.06,0-.28.17-.63.24-.85.49-.02.03-.08.06-.11.08-.66.38-1.21.98-1.63,1.61l-.21.13s-.06.04-.12.05c.09-.19.18-.37.34-.5.14-.11.12-.23.16-.35.09-.24.6-.66.63-1.04.02-.25-.04-.49-.21-.7-.5-.6-1.14-1.06-1.89-1.27-.69-.19-1.36.05-1.79.6-.07.09-.23.21-.3.12.68-.79,1.41-1.55,2.37-2.06,1.02-.55,2.2-.88,3.28-.4Z"/>
  <path class="st1" d="M14.67,14.04s-.07.03-.1.02c-.37-.1-.74.07-1.11.03-.6-.07-1.22-.06-1.83-.03.17,0-1.12.01-.76-.12l3.69-.02c.05,0,.09,0,.11.03.01.02,0,.06,0,.08Z"/>
  <path class="st9" d="M16.05,13.74c-.04.06-.08.11-.18.13l-.67.13s-.05-.01-.07-.01v-.06c.3-.1.62-.11.92-.19Z"/>
  <path class="st8" d="M12.95,11.74c.11.06.24.04.34.13-.01.04-.03.07-.05.1-.12-.06-.29-.03-.42-.12v-.1h.12Z"/>
  <path class="st1" d="M15.13,13.93v.06c-.12,0-.24.02-.36.04,0-.18.24-.06.36-.1Z"/>
</svg>